<?xml version="1.0" encoding="UTF-8" standalone="no"?>
<svg viewBox="0 0 800 600" xmlns="http://www.w3.org/2000/svg">
  <!-- Background -->
  <rect width="800" height="600" fill="#121212" rx="10" ry="10"/>
  
  <!-- Title -->
  <text x="400" y="40" font-family="Arial" font-size="24" fill="#ffffff" text-anchor="middle" font-weight="bold">Arquitetura Modular - Systentando ONE</text>
  
  <!-- Main Container -->
  <rect x="50" y="70" width="700" height="480" fill="#1e1e1e" rx="10" ry="10" stroke="#333333" stroke-width="2"/>
  
  <!-- Core Platform Container -->
  <rect x="70" y="100" width="660" height="120" fill="#004f4f" fill-opacity="0.2" rx="8" ry="8" stroke="#004f4f" stroke-width="2"/>
  <text x="400" y="120" font-family="Arial" font-size="18" fill="#ffffff" text-anchor="middle">Core Platform Services</text>
  
  <!-- Core Services -->
  <rect x="90" y="140" width="120" height="60" fill="#004f4f" rx="6" ry="6"/>
  <text x="150" y="175" font-family="Arial" font-size="14" fill="#ffffff" text-anchor="middle">Authentication</text>
  
  <rect x="230" y="140" width="120" height="60" fill="#004f4f" rx="6" ry="6"/>
  <text x="290" y="175" font-family="Arial" font-size="14" fill="#ffffff" text-anchor="middle">User Management</text>
  
  <rect x="370" y="140" width="120" height="60" fill="#004f4f" rx="6" ry="6"/>
  <text x="430" y="175" font-family="Arial" font-size="14" fill="#ffffff" text-anchor="middle">Catalog API</text>
  
  <rect x="510" y="140" width="120" height="60" fill="#004f4f" rx="6" ry="6"/>
  <text x="570" y="175" font-family="Arial" font-size="14" fill="#ffffff" text-anchor="middle">Analytics</text>
  
  <!-- Products Container -->
  <rect x="70" y="240" width="660" height="240" fill="#ff7d50" fill-opacity="0.1" rx="8" ry="8" stroke="#ff7d50" stroke-width="2"/>
  <text x="400" y="260" font-family="Arial" font-size="18" fill="#ffffff" text-anchor="middle">Product Modules</text>
  
  <!-- Product Row 1 -->
  <rect x="90" y="280" width="150" height="80" fill="#00b894" rx="6" ry="6"/>
  <text x="165" y="310" font-family="Arial" font-size="14" fill="#ffffff" text-anchor="middle">ZEN Launcher</text>
  <text x="165" y="330" font-family="Arial" font-size="12" fill="#ffffff" text-anchor="middle">Digital Wellbeing</text>
  
  <rect x="260" y="280" width="150" height="80" fill="#9b59b6" rx="6" ry="6"/>
  <text x="335" y="310" font-family="Arial" font-size="14" fill="#ffffff" text-anchor="middle">Meu Nutri</text>
  <text x="335" y="330" font-family="Arial" font-size="12" fill="#ffffff" text-anchor="middle">Health & Nutrition</text>
  
  <rect x="430" y="280" width="150" height="80" fill="#f39c12" rx="6" ry="6"/>
  <text x="505" y="310" font-family="Arial" font-size="14" fill="#ffffff" text-anchor="middle">Momento do Investimento</text>
  <text x="505" y="330" font-family="Arial" font-size="12" fill="#ffffff" text-anchor="middle">Financial Growth</text>
  
  <!-- Product Row 2 -->
  <rect x="90" y="380" width="150" height="80" fill="#3498db" rx="6" ry="6"/>
  <text x="165" y="410" font-family="Arial" font-size="14" fill="#ffffff" text-anchor="middle">Rodada de Negócios</text>
  <text x="165" y="430" font-family="Arial" font-size="12" fill="#ffffff" text-anchor="middle">Business Challenges</text>
  
  <rect x="260" y="380" width="150" height="80" fill="#e84393" rx="6" ry="6"/>
  <text x="335" y="410" font-family="Arial" font-size="14" fill="#ffffff" text-anchor="middle">Systentando DevPack</text>
  <text x="335" y="430" font-family="Arial" font-size="12" fill="#ffffff" text-anchor="middle">Developer Toolkit</text>
  
  <rect x="430" y="380" width="150" height="80" fill="#333333" rx="6" ry="6" stroke="#ffffff" stroke-width="1" stroke-dasharray="5,5"/>
  <text x="505" y="410" font-family="Arial" font-size="14" fill="#ffffff" text-anchor="middle">Future Module</text>
  <text x="505" y="430" font-family="Arial" font-size="12" fill="#ffffff" text-anchor="middle">Extensible</text>
  
  <!-- Developer Extensibility -->
  <rect x="600" y="280" width="120" height="180" fill="#004f4f" rx="6" ry="6"/>
  <text x="660" y="340" font-family="Arial" font-size="14" fill="#ffffff" text-anchor="middle" transform="rotate(-90, 660, 340)">Developer Extensibility Layer</text>
  
  <!-- Database Layer -->
  <rect x="70" y="500" width="660" height="30" fill="#333333" rx="5" ry="5"/>
  <text x="400" y="520" font-family="Arial" font-size="14" fill="#ffffff" text-anchor="middle">Shared Database & Storage Layer</text>
  
  <!-- Connections -->
  <!-- Core to Products -->
  <path d="M400 200 L400 240" stroke="#ffffff" stroke-width="2" stroke-dasharray="5,5"/>
  
  <!-- Products to Database -->
  <path d="M400 480 L400 500" stroke="#ffffff" stroke-width="2" stroke-dasharray="5,5"/>
  
  <!-- Legend -->
  <rect x="580" y="75" width="15" height="15" fill="#004f4f" rx="2" ry="2"/>
  <text x="600" y="87" font-family="Arial" font-size="12" fill="#ffffff">Core Services</text>
  
  <rect x="580" y="95" width="15" height="15" fill="#ff7d50" fill-opacity="0.6" rx="2" ry="2"/>
  <text x="600" y="107" font-family="Arial" font-size="12" fill="#ffffff">Products</text>
</svg>